<?xml version="1.0" encoding="UTF-8" standalone="no"?>
<!DOCTYPE svg PUBLIC "-//W3C//DTD SVG 1.1//EN"
 "http://www.w3.org/Graphics/SVG/1.1/DTD/svg11.dtd">
<!-- Generated by graphviz version 2.40.1 (20161225.0304)
 -->
<!-- Title: Graph Legend Pages: 1 -->
<svg width="510pt" height="154pt"
 viewBox="0.00 0.00 509.69 154.00" xmlns="http://www.w3.org/2000/svg" xmlns:xlink="http://www.w3.org/1999/xlink">
<g id="graph0" class="graph" transform="scale(1 1) rotate(0) translate(4 150)">
<title>Graph Legend</title>
<polygon fill="#ffffff" stroke="transparent" points="-4,4 -4,-150 505.687,-150 505.687,4 -4,4"/>
<!-- Node9 -->
<g id="node1" class="node">
<title>Node9</title>
<polygon fill="#bfbfbf" stroke="#000000" points="293.4307,-18 238.5986,-18 238.5986,0 293.4307,0 293.4307,-18"/>
<text text-anchor="middle" x="266.0146" y="-6" font-family="Helvetica,sans-Serif" font-size="10.00" fill="#000000">Inherited</text>
</g>
<!-- Node10 -->
<g id="node2" class="node">
<title>Node10</title>
<g id="a_node2"><a xlink:href="$classPublicBase.html" xlink:title="PublicBase">
<polygon fill="none" stroke="#000000" points="66.044,-82 -.0147,-82 -.0147,-64 66.044,-64 66.044,-82"/>
<text text-anchor="middle" x="33.0146" y="-70" font-family="Helvetica,sans-Serif" font-size="10.00" fill="#000000">PublicBase</text>
</a>
</g>
</g>
<!-- Node10&#45;&gt;Node9 -->
<g id="edge1" class="edge">
<title>Node10&#45;&gt;Node9</title>
<path fill="none" stroke="#191970" d="M75.5674,-61.3117C122.9375,-48.3002 198.1126,-27.6512 238.3859,-16.589"/>
<polygon fill="#191970" stroke="#191970" points="74.6195,-57.9424 65.9037,-63.9661 76.4736,-64.6923 74.6195,-57.9424"/>
</g>
<!-- Node11 -->
<g id="node3" class="node">
<title>Node11</title>
<g id="a_node3"><a xlink:href="$classTruncated.html" xlink:title="Truncated">
<polygon fill="none" stroke="#ff0000" points="63.1738,-146 2.8555,-146 2.8555,-128 63.1738,-128 63.1738,-146"/>
<text text-anchor="middle" x="33.0146" y="-134" font-family="Helvetica,sans-Serif" font-size="10.00" fill="#000000">Truncated</text>
</a>
</g>
</g>
<!-- Node11&#45;&gt;Node10 -->
<g id="edge2" class="edge">
<title>Node11&#45;&gt;Node10</title>
<path fill="none" stroke="#191970" d="M33.0146,-117.6352C33.0146,-105.8602 33.0146,-91.366 33.0146,-82.1526"/>
<polygon fill="#191970" stroke="#191970" points="29.5147,-117.8303 33.0146,-127.8304 36.5147,-117.8304 29.5147,-117.8303"/>
</g>
<!-- Node13 -->
<g id="node4" class="node">
<title>Node13</title>
<g id="a_node4"><a xlink:href="$classProtectedBase.html" xlink:title="ProtectedBase">
<polygon fill="none" stroke="#000000" points="165.6113,-82 84.4179,-82 84.4179,-64 165.6113,-64 165.6113,-82"/>
<text text-anchor="middle" x="125.0146" y="-70" font-family="Helvetica,sans-Serif" font-size="10.00" fill="#000000">ProtectedBase</text>
</a>
</g>
</g>
<!-- Node13&#45;&gt;Node9 -->
<g id="edge3" class="edge">
<title>Node13&#45;&gt;Node9</title>
<path fill="none" stroke="#006400" d="M154.3674,-59.6768C181.724,-47.2596 221.7977,-29.0701 245.7565,-18.1952"/>
<polygon fill="#006400" stroke="#006400" points="152.5767,-56.6458 144.9175,-63.9661 155.47,-63.0199 152.5767,-56.6458"/>
</g>
<!-- Node14 -->
<g id="node5" class="node">
<title>Node14</title>
<g id="a_node5"><a xlink:href="$classPrivateBase.html" xlink:title="PrivateBase">
<polygon fill="none" stroke="#000000" points="253.9307,-82 184.0986,-82 184.0986,-64 253.9307,-64 253.9307,-82"/>
<text text-anchor="middle" x="219.0146" y="-70" font-family="Helvetica,sans-Serif" font-size="10.00" fill="#000000">PrivateBase</text>
</a>
</g>
</g>
<!-- Node14&#45;&gt;Node9 -->
<g id="edge4" class="edge">
<title>Node14&#45;&gt;Node9</title>
<path fill="none" stroke="#8b1a1a" d="M231.9152,-55.4334C240.7753,-43.3685 252.1784,-27.8409 259.2932,-18.1526"/>
<polygon fill="#8b1a1a" stroke="#8b1a1a" points="228.8467,-53.6986 225.7486,-63.8304 234.4888,-57.842 228.8467,-53.6986"/>
</g>
<!-- Node15 -->
<g id="node6" class="node">
<title>Node15</title>
<polygon fill="none" stroke="#bfbfbf" points="355.8371,-82 272.1922,-82 272.1922,-64 355.8371,-64 355.8371,-82"/>
<text text-anchor="middle" x="314.0146" y="-70" font-family="Helvetica,sans-Serif" font-size="10.00" fill="#000000">Undocumented</text>
</g>
<!-- Node15&#45;&gt;Node9 -->
<g id="edge5" class="edge">
<title>Node15&#45;&gt;Node9</title>
<path fill="none" stroke="#191970" d="M301.105,-55.7872C292.0198,-43.6735 280.2166,-27.9359 272.8791,-18.1526"/>
<polygon fill="#191970" stroke="#191970" points="298.3374,-57.9304 307.1374,-63.8304 303.9374,-53.7303 298.3374,-57.9304"/>
</g>
<!-- Node16 -->
<g id="node7" class="node">
<title>Node16</title>
<g id="a_node7"><a xlink:href="$classTempl.html" xlink:title="Templ&lt; int &gt;">
<polygon fill="none" stroke="#000000" points="444.4889,-82 373.5404,-82 373.5404,-64 444.4889,-64 444.4889,-82"/>
<text text-anchor="middle" x="409.0146" y="-70" font-family="Helvetica,sans-Serif" font-size="10.00" fill="#000000">Templ&lt; int &gt;</text>
</a>
</g>
</g>
<!-- Node16&#45;&gt;Node9 -->
<g id="edge6" class="edge">
<title>Node16&#45;&gt;Node9</title>
<path fill="none" stroke="#191970" d="M379.6098,-59.8398C351.8577,-47.4193 310.9654,-29.1178 286.5601,-18.1952"/>
<polygon fill="#191970" stroke="#191970" points="378.2722,-63.0756 388.8295,-63.9661 381.1318,-56.6863 378.2722,-63.0756"/>
</g>
<!-- Node17 -->
<g id="node8" class="node">
<title>Node17</title>
<g id="a_node8"><a xlink:href="$classTempl.html" xlink:title="Templ&lt; T &gt;">
<polygon fill="none" stroke="#000000" points="441.6835,-146 376.3458,-146 376.3458,-128 441.6835,-128 441.6835,-146"/>
<text text-anchor="middle" x="409.0146" y="-134" font-family="Helvetica,sans-Serif" font-size="10.00" fill="#000000">Templ&lt; T &gt;</text>
</a>
</g>
</g>
<!-- Node17&#45;&gt;Node16 -->
<g id="edge7" class="edge">
<title>Node17&#45;&gt;Node16</title>
<path fill="none" stroke="#ffa500" stroke-dasharray="5,2" d="M409.0146,-117.6352C409.0146,-105.8602 409.0146,-91.366 409.0146,-82.1526"/>
<polygon fill="#ffa500" stroke="#ffa500" points="405.5147,-117.8303 409.0146,-127.8304 412.5147,-117.8304 405.5147,-117.8303"/>
<text text-anchor="middle" x="422.9136" y="-102" font-family="Helvetica,sans-Serif" font-size="10.00" fill="#000000">&lt; int &gt;</text>
</g>
<!-- Node18 -->
<g id="node9" class="node">
<title>Node18</title>
<g id="a_node9"><a xlink:href="$classUsed.html" xlink:title="Used">
<polygon fill="none" stroke="#000000" points="501.8609,-82 462.1684,-82 462.1684,-64 501.8609,-64 501.8609,-82"/>
<text text-anchor="middle" x="482.0146" y="-70" font-family="Helvetica,sans-Serif" font-size="10.00" fill="#000000">Used</text>
</a>
</g>
</g>
<!-- Node18&#45;&gt;Node9 -->
<g id="edge8" class="edge">
<title>Node18&#45;&gt;Node9</title>
<path fill="none" stroke="#9a32cd" stroke-dasharray="5,2" d="M452.4513,-63.8612C390.0797,-45.0483 328.3535,-27.051 293.6185,-16.9796"/>
<polygon fill="#9a32cd" stroke="#9a32cd" points="451.4734,-67.222 462.0584,-66.764 453.4981,-60.5211 451.4734,-67.222"/>
<text text-anchor="middle" x="421.3052" y="-38" font-family="Helvetica,sans-Serif" font-size="10.00" fill="#000000">m_usedClass</text>
</g>
</g>
</svg>
