<?xml version="1.0" encoding="UTF-8" standalone="no"?>
<!DOCTYPE svg PUBLIC "-//W3C//DTD SVG 1.1//EN"
 "http://www.w3.org/Graphics/SVG/1.1/DTD/svg11.dtd">
<!-- Generated by graphviz version 2.38.0 (20140413.2041)
 -->
<!-- Title: Graph Legend Pages: 1 -->
<svg width="510pt" height="154pt"
 viewBox="0.00 0.00 509.69 154.00" xmlns="http://www.w3.org/2000/svg" xmlns:xlink="http://www.w3.org/1999/xlink">
<g id="graph0" class="graph" transform="scale(1 1) rotate(0) translate(4 150)">
<title>Graph Legend</title>
<polygon fill="white" stroke="none" points="-4,4 -4,-150 505.687,-150 505.687,4 -4,4"/>
<!-- Node9 -->
<g id="node1" class="node"><title>Node9</title>
<polygon fill="#bfbfbf" stroke="black" points="293.431,-18 238.599,-18 238.599,-0 293.431,-0 293.431,-18"/>
<text text-anchor="middle" x="266.015" y="-6" font-family="Helvetica,sans-Serif" font-size="10.00">Inherited</text>
</g>
<!-- Node10 -->
<g id="node2" class="node"><title>Node10</title>
<g id="a_node2"><a xlink:href="$classPublicBase.html" xlink:title="PublicBase">
<polygon fill="none" stroke="black" points="66.044,-82 -0.0146549,-82 -0.0146549,-64 66.044,-64 66.044,-82"/>
<text text-anchor="middle" x="33.0146" y="-70" font-family="Helvetica,sans-Serif" font-size="10.00">PublicBase</text>
</a>
</g>
</g>
<!-- Node10&#45;&gt;Node9 -->
<g id="edge1" class="edge"><title>Node10&#45;&gt;Node9</title>
<path fill="none" stroke="midnightblue" d="M73.3674,-61.2624C120.605,-48.6928 197.564,-28.2142 238.451,-17.3346"/>
<polygon fill="midnightblue" stroke="midnightblue" points="72.239,-57.9407 63.4753,-63.8946 74.0391,-64.7054 72.239,-57.9407"/>
</g>
<!-- Node11 -->
<g id="node3" class="node"><title>Node11</title>
<g id="a_node3"><a xlink:href="$classTruncated.html" xlink:title="Truncated">
<polygon fill="none" stroke="red" points="63.1738,-146 2.85549,-146 2.85549,-128 63.1738,-128 63.1738,-146"/>
<text text-anchor="middle" x="33.0146" y="-134" font-family="Helvetica,sans-Serif" font-size="10.00">Truncated</text>
</a>
</g>
</g>
<!-- Node11&#45;&gt;Node10 -->
<g id="edge2" class="edge"><title>Node11&#45;&gt;Node10</title>
<path fill="none" stroke="midnightblue" d="M33.0146,-117.828C33.0146,-106.079 33.0146,-91.3449 33.0146,-82.3053"/>
<polygon fill="midnightblue" stroke="midnightblue" points="29.5147,-117.895 33.0146,-127.895 36.5147,-117.895 29.5147,-117.895"/>
</g>
<!-- Node13 -->
<g id="node4" class="node"><title>Node13</title>
<g id="a_node4"><a xlink:href="$classProtectedBase.html" xlink:title="ProtectedBase">
<polygon fill="none" stroke="black" points="165.611,-82 84.4179,-82 84.4179,-64 165.611,-64 165.611,-82"/>
<text text-anchor="middle" x="125.015" y="-70" font-family="Helvetica,sans-Serif" font-size="10.00">ProtectedBase</text>
</a>
</g>
</g>
<!-- Node13&#45;&gt;Node9 -->
<g id="edge3" class="edge"><title>Node13&#45;&gt;Node9</title>
<path fill="none" stroke="darkgreen" d="M152.713,-59.8204C180.778,-47.4799 223.402,-28.7375 247.577,-18.1074"/>
<polygon fill="darkgreen" stroke="darkgreen" points="151.193,-56.6654 143.448,-63.8946 154.011,-63.0733 151.193,-56.6654"/>
</g>
<!-- Node14 -->
<g id="node5" class="node"><title>Node14</title>
<g id="a_node5"><a xlink:href="$classPrivateBase.html" xlink:title="PrivateBase">
<polygon fill="none" stroke="black" points="253.931,-82 184.099,-82 184.099,-64 253.931,-64 253.931,-82"/>
<text text-anchor="middle" x="219.015" y="-70" font-family="Helvetica,sans-Serif" font-size="10.00">PrivateBase</text>
</a>
</g>
</g>
<!-- Node14&#45;&gt;Node9 -->
<g id="edge4" class="edge"><title>Node14&#45;&gt;Node9</title>
<path fill="none" stroke="#8b1a1a" d="M231.432,-55.6198C240.534,-43.6129 252.513,-27.8108 259.719,-18.3053"/>
<polygon fill="#8b1a1a" stroke="#8b1a1a" points="228.411,-53.8111 225.159,-63.8946 233.989,-58.0399 228.411,-53.8111"/>
</g>
<!-- Node15 -->
<g id="node6" class="node"><title>Node15</title>
<polygon fill="none" stroke="#bfbfbf" points="355.837,-82 272.192,-82 272.192,-64 355.837,-64 355.837,-82"/>
<text text-anchor="middle" x="314.015" y="-70" font-family="Helvetica,sans-Serif" font-size="10.00">Undocumented</text>
</g>
<!-- Node15&#45;&gt;Node9 -->
<g id="edge5" class="edge"><title>Node15&#45;&gt;Node9</title>
<path fill="none" stroke="midnightblue" d="M301.606,-55.9718C292.278,-43.9234 279.876,-27.904 272.445,-18.3053"/>
<polygon fill="midnightblue" stroke="midnightblue" points="298.85,-58.1299 307.739,-63.8946 304.385,-53.8447 298.85,-58.1299"/>
</g>
<!-- Node16 -->
<g id="node7" class="node"><title>Node16</title>
<g id="a_node7"><a xlink:href="$classTempl.html" xlink:title="Templ&lt; int &gt;">
<polygon fill="none" stroke="black" points="444.489,-82 373.54,-82 373.54,-64 444.489,-64 444.489,-82"/>
<text text-anchor="middle" x="409.015" y="-70" font-family="Helvetica,sans-Serif" font-size="10.00">Templ&lt; int &gt;</text>
</a>
</g>
</g>
<!-- Node16&#45;&gt;Node9 -->
<g id="edge6" class="edge"><title>Node16&#45;&gt;Node9</title>
<path fill="none" stroke="midnightblue" d="M380.923,-59.8204C352.46,-47.4799 309.232,-28.7375 284.714,-18.1074"/>
<polygon fill="midnightblue" stroke="midnightblue" points="379.753,-63.1278 390.32,-63.8946 382.537,-56.7055 379.753,-63.1278"/>
</g>
<!-- Node17 -->
<g id="node8" class="node"><title>Node17</title>
<g id="a_node8"><a xlink:href="$classTempl.html" xlink:title="Templ&lt; T &gt;">
<polygon fill="none" stroke="black" points="441.683,-146 376.346,-146 376.346,-128 441.683,-128 441.683,-146"/>
<text text-anchor="middle" x="409.015" y="-134" font-family="Helvetica,sans-Serif" font-size="10.00">Templ&lt; T &gt;</text>
</a>
</g>
</g>
<!-- Node17&#45;&gt;Node16 -->
<g id="edge7" class="edge"><title>Node17&#45;&gt;Node16</title>
<path fill="none" stroke="orange" stroke-dasharray="5,2" d="M409.015,-117.828C409.015,-106.079 409.015,-91.3449 409.015,-82.3053"/>
<polygon fill="orange" stroke="orange" points="405.515,-117.895 409.015,-127.895 412.515,-117.895 405.515,-117.895"/>
<text text-anchor="middle" x="422.914" y="-102" font-family="Helvetica,sans-Serif" font-size="10.00">&lt; int &gt;</text>
</g>
<!-- Node18 -->
<g id="node9" class="node"><title>Node18</title>
<g id="a_node9"><a xlink:href="$classUsed.html" xlink:title="Used">
<polygon fill="none" stroke="black" points="501.861,-82 462.168,-82 462.168,-64 501.861,-64 501.861,-82"/>
<text text-anchor="middle" x="482.015" y="-70" font-family="Helvetica,sans-Serif" font-size="10.00">Used</text>
</a>
</g>
</g>
<!-- Node18&#45;&gt;Node9 -->
<g id="edge8" class="edge"><title>Node18&#45;&gt;Node9</title>
<path fill="none" stroke="#9a32cd" stroke-dasharray="5,2" d="M452.451,-63.5142C410.543,-51.4849 334.429,-29.6374 293.618,-17.9232"/>
<polygon fill="#9a32cd" stroke="#9a32cd" points="451.504,-66.8834 462.081,-66.2783 453.435,-60.1551 451.504,-66.8834"/>
<text text-anchor="middle" x="417.305" y="-38" font-family="Helvetica,sans-Serif" font-size="10.00">m_usedClass</text>
</g>
</g>
</svg>
